<?xml version="1.0" standalone="no"?>
<!DOCTYPE svg PUBLIC "-//W3C//DTD SVG 20010904//EN"
 "http://www.w3.org/TR/2001/REC-SVG-20010904/DTD/svg10.dtd">
<svg version="1.0" xmlns="http://www.w3.org/2000/svg"
 width="128.000000pt" height="128.000000pt" viewBox="0 0 128.000000 128.000000"
 preserveAspectRatio="xMidYMid meet">
<metadata>
Created by potrace 1.14, written by Peter Selinger 2001-2017
</metadata>
<g transform="translate(0.000000,128.000000) scale(0.100000,-0.100000)"
fill="#000000" stroke="none">
<path d="M490 1184 c-30 -8 -82 -30 -116 -49 -280 -157 -333 -530 -109 -758
114 -116 290 -165 460 -128 177 39 321 171 370 339 76 258 -76 516 -350 595
-65 19 -185 19 -255 1z"/>
<path d="M14 675 c-15 -22 -15 -27 -1 -48 8 -13 13 -34 10 -48 -3 -15 1 -30 9
-37 19 -15 58 -4 58 17 0 27 -12 33 -26 13 -11 -14 -13 -14 -14 -2 0 13 -1 13
-10 0 -8 -13 -10 -12 -10 3 0 9 5 17 11 17 6 0 1 13 -11 30 -17 23 -19 34 -10
47 9 16 10 15 8 -7 -2 -20 1 -24 17 -22 15 2 17 0 6 -6 -9 -7 -10 -12 -2 -16
13 -8 26 18 16 34 -3 6 -11 7 -17 4 -7 -5 -9 0 -6 14 9 32 -9 36 -28 7z m56
-125 c-20 -13 -30 -12 -30 1 0 5 4 8 9 4 5 -3 13 0 16 6 4 5 10 8 13 4 4 -3 0
-10 -8 -15z"/>
<path d="M1180 672 c0 -5 14 -12 30 -14 17 -3 30 -1 30 4 0 4 -6 8 -14 8 -8 0
-21 3 -30 6 -9 3 -16 2 -16 -4z"/>
<path d="M1173 628 c-2 -16 0 -19 6 -9 6 9 18 11 35 7 14 -3 26 -3 26 2 0 5
-6 9 -12 10 -7 0 -22 3 -33 7 -16 5 -21 1 -22 -17z"/>
<path d="M1192 608 c2 -7 -6 -13 -17 -13 -18 0 -21 -6 -16 -35 0 -5 6 -10 12
-10 8 0 7 6 -2 17 -12 15 -12 16 3 10 20 -7 45 27 28 38 -6 4 -9 1 -8 -7z"/>
<path d="M1130 524 c0 -8 5 -12 10 -9 6 3 10 10 10 16 0 5 -4 9 -10 9 -5 0
-10 -7 -10 -16z"/>
<path d="M1162 523 c-8 -8 -11 -22 -7 -31 5 -14 7 -14 15 -2 5 8 6 18 3 24 -4
5 1 7 11 3 10 -4 20 -7 23 -7 4 0 -2 -9 -11 -19 -10 -11 -13 -21 -7 -25 10 -6
24 10 27 31 1 7 -8 18 -20 26 -18 12 -23 12 -34 0z"/>
<path d="M53 504 c-54 -32 -56 -41 -3 -14 21 11 43 20 47 20 13 -1 -41 -40
-54 -40 -7 0 -13 -5 -13 -11 0 -5 18 0 39 12 26 14 39 28 38 40 -2 24 -4 24
-54 -7z"/>
<path d="M120 478 c0 -9 5 -20 11 -23 17 -11 18 -2 3 19 -12 17 -14 17 -14 4z"/>
<path d="M97 474 c-3 -3 -3 -12 0 -20 3 -8 -3 -24 -12 -34 -10 -11 -16 -22
-13 -25 9 -9 45 41 42 59 -3 21 -9 28 -17 20z"/>
<path d="M1090 451 c-12 -23 5 -33 33 -19 15 7 16 12 6 24 -16 19 -26 18 -39
-5z m35 -1 c3 -5 -1 -10 -9 -10 -9 0 -16 5 -16 10 0 6 4 10 9 10 6 0 13 -4 16
-10z"/>
<path d="M136 431 c-3 -5 -2 -20 3 -34 5 -14 7 -29 3 -33 -4 -5 3 0 16 10 12
11 22 21 22 24 0 2 -6 -1 -14 -7 -11 -9 -15 -7 -19 10 -4 15 -2 19 10 15 9 -4
13 -1 11 6 -6 16 -25 21 -32 9z"/>
<path d="M1090 408 c0 -4 9 -8 20 -8 11 0 20 4 20 8 0 4 -9 8 -20 8 -11 0 -20
-4 -20 -8z"/>
<path d="M1042 385 c-12 -13 -17 -27 -13 -30 5 -3 11 2 15 10 3 8 10 15 15 15
6 0 8 -6 5 -13 -2 -7 2 -21 10 -32 14 -19 16 -19 32 -3 15 15 15 17 -5 28 -12
6 -19 15 -16 21 4 5 1 8 -7 7 -7 -2 -12 3 -10 10 3 17 -2 15 -26 -13z m58 -45
c0 -5 -5 -10 -11 -10 -5 0 -7 5 -4 10 3 6 8 10 11 10 2 0 4 -4 4 -10z"/>
<path d="M175 370 c-3 -6 1 -7 9 -4 9 3 16 1 16 -5 0 -6 -5 -11 -11 -11 -8 0
-8 -4 1 -15 6 -8 9 -19 5 -25 -3 -5 -2 -10 3 -10 6 0 13 7 16 16 4 9 13 14 22
10 9 -3 12 -2 9 5 -4 5 -15 7 -26 4 -11 -4 -19 -2 -19 4 0 6 4 11 10 11 5 0 7
7 4 15 -7 17 -30 20 -39 5z"/>
<path d="M1025 326 c10 -14 19 -26 22 -26 7 0 -17 39 -28 46 -6 3 -3 -5 6 -20z"/>
<path d="M987 333 c-11 -10 -8 -43 4 -43 5 0 8 4 4 9 -3 5 2 11 11 13 15 3 15
4 2 15 -8 7 -18 10 -21 6z"/>
<path d="M1130 330 c0 -5 5 -10 11 -10 5 0 7 5 4 10 -3 6 -8 10 -11 10 -2 0
-4 -4 -4 -10z"/>
<path d="M245 300 c-3 -5 -1 -10 4 -10 6 0 11 5 11 10 0 6 -2 10 -4 10 -3 0
-8 -4 -11 -10z"/>
<path d="M270 297 c0 -7 -9 -18 -19 -24 -13 -8 -18 -19 -14 -32 3 -12 9 -18
14 -15 5 3 6 10 3 16 -4 6 -1 9 7 6 14 -5 38 18 39 36 0 6 -7 1 -15 -10 -15
-18 -15 -18 -9 9 3 15 3 27 0 27 -3 0 -6 -6 -6 -13z"/>
<path d="M960 285 c7 -9 10 -19 6 -23 -4 -4 -12 1 -17 11 -10 16 -11 16 -33 0
-20 -15 -21 -19 -8 -29 10 -8 23 -7 47 4 29 13 32 18 22 34 -7 10 -16 18 -21
18 -4 0 -3 -7 4 -15z m-20 -25 c0 -5 -7 -10 -16 -10 -8 0 -12 5 -9 10 3 6 10
10 16 10 5 0 9 -4 9 -10z"/>
<path d="M330 257 c0 -10 -6 -14 -14 -11 -21 8 -32 -17 -13 -31 9 -7 13 -16 9
-20 -4 -5 -1 -5 6 -1 6 4 12 16 12 26 0 10 7 20 17 22 15 3 15 4 0 17 -15 12
-17 11 -17 -2z m-10 -27 c0 -5 -2 -10 -4 -10 -3 0 -8 5 -11 10 -3 6 -1 10 4
10 6 0 11 -4 11 -10z"/>
<path d="M835 231 c-3 -6 2 -11 12 -12 16 0 16 -1 -1 -8 -19 -7 -19 -8 1 -13
16 -4 20 -1 19 15 -1 23 -21 34 -31 18z"/>
<path d="M381 217 c-8 -11 -5 -16 13 -25 20 -9 25 -8 30 4 12 32 -21 47 -43
21z m34 -7 c3 -5 -1 -10 -9 -10 -9 0 -16 5 -16 10 0 6 4 10 9 10 6 0 13 -4 16
-10z"/>
<path d="M737 223 c-4 -3 -7 -16 -7 -28 0 -13 -9 -26 -22 -33 l-23 -11 22 0
c17 -1 24 6 29 27 4 15 11 33 17 40 10 13 -4 18 -16 5z"/>
<path d="M690 210 c0 -5 7 -7 15 -4 8 4 15 8 15 10 0 2 -7 4 -15 4 -8 0 -15
-4 -15 -10z"/>
<path d="M783 209 c-14 -5 -21 -16 -20 -29 1 -11 7 -18 13 -16 6 2 18 -1 25
-7 11 -10 11 -9 1 4 -6 9 -9 19 -5 23 4 4 -1 4 -12 1 -16 -6 -17 -5 -5 4 21
15 30 14 30 -4 0 -8 5 -15 10 -15 8 0 -1 32 -14 46 0 1 -11 -2 -23 -7z"/>
<path d="M885 210 c-3 -5 -1 -10 4 -10 6 0 11 5 11 10 0 6 -2 10 -4 10 -3 0
-8 -4 -11 -10z"/>
<path d="M446 193 c-4 -10 -1 -20 9 -25 23 -13 18 -27 -7 -21 -20 4 -21 3 -6
-7 10 -6 21 -18 26 -26 6 -11 9 -6 9 18 0 18 -7 39 -16 46 -14 12 -13 13 7 9
25 -6 30 8 6 17 -21 8 -21 8 -28 -11z"/>
<path d="M518 184 c19 -9 14 -24 -5 -17 -16 6 -16 5 -4 -10 14 -17 32 -23 30
-9 -1 4 -1 14 1 22 1 13 2 13 8 -1 6 -15 8 -15 24 0 15 15 13 16 -25 18 -23 1
-36 -1 -29 -3z"/>
<path d="M605 180 c-3 -5 -2 -10 4 -10 5 0 13 5 16 10 3 6 2 10 -4 10 -5 0
-13 -4 -16 -10z"/>
<path d="M690 180 c0 -5 7 -7 15 -4 8 4 15 8 15 10 0 2 -7 4 -15 4 -8 0 -15
-4 -15 -10z"/>
<path d="M620 145 c33 -19 50 -18 26 0 -11 8 -27 15 -35 15 -10 -1 -7 -6 9
-15z"/>
<path d="M444 103 c12 -24 21 -31 33 -26 14 5 14 8 2 11 -7 2 -22 14 -32 26
-18 21 -18 20 -3 -11z"/>
<path d="M700 118 c0 -5 10 -6 22 -2 20 6 21 5 9 -10 -12 -14 -12 -16 2 -10
29 11 27 30 -4 30 -16 0 -29 -4 -29 -8z"/>
<path d="M545 100 c3 -5 8 -10 11 -10 2 0 4 5 4 10 0 6 -5 10 -11 10 -5 0 -7
-4 -4 -10z"/>
</g>
</svg>
